<svg width="40" height="40" id="图层_1" data-name="图层 1" xmlns="http://www.w3.org/2000/svg" viewBox="0 0 11.34 11.34"><defs><style>.cls-1{fill:#f75821;}</style></defs><title>icon</title><path class="cls-1" d="M10.21,4.08H7.64v1h1a1,1,0,0,1,1,1v2a1,1,0,0,1-1,1h-2a1,1,0,0,1-1-1V6.48H4.08v2.6a1,1,0,0,0,1,1H7.78l1.94,1.18h.2a.21.21,0,0,0,.09-.18v-1h.2a1,1,0,0,0,1-1v-4A1,1,0,0,0,10.21,4.08Z"/><circle class="cls-1" cx="6.95" cy="6.58" r="0.3"/><circle class="cls-1" cx="8.33" cy="6.58" r="0.3"/><path class="cls-1" d="M6.26,6.08a1,1,0,0,0,1-1v-4a1,1,0,0,0-1-1H1.11a1,1,0,0,0-1,1v4a1,1,0,0,0,1,1h.2v1a.22.22,0,0,0,.1.18h.2L3.55,6.08Zm-4.55-4a1,1,0,0,1,1-1h2a1,1,0,0,1,1,1v2a1,1,0,0,1-1,1h-2a1,1,0,0,1-1-1Z"/><path class="cls-1" d="M6.67,7.8a.24.24,0,0,0,.08.26A.25.25,0,0,0,7,8a.63.63,0,0,1,.61-.3.62.62,0,0,1,.61.3.22.22,0,0,0,.18.1h.08a.22.22,0,0,0,.1-.26,1,1,0,0,0-1-.54A1,1,0,0,0,6.67,7.8Z"/><circle class="cls-1" cx="2.99" cy="2.58" r="0.3"/><circle class="cls-1" cx="4.38" cy="2.58" r="0.3"/><path class="cls-1" d="M3.07,3.4a.2.2,0,0,0-.24-.15.21.21,0,0,0-.14.25.09.09,0,0,0,0,.06,1,1,0,0,0,1,.52,1,1,0,0,0,1-.52.22.22,0,0,0-.07-.26.23.23,0,0,0-.28.08.63.63,0,0,1-.61.3A.72.72,0,0,1,3.07,3.4Z"/></svg>